<?xml version="1.0" encoding="UTF-8" standalone="no"?>
<!DOCTYPE svg PUBLIC "-//W3C//DTD SVG 1.1//EN" "http://www.w3.org/Graphics/SVG/1.1/DTD/svg11.dtd">
<svg width="100%" height="100%" viewBox="0 0 4096 879" version="1.1" xmlns="http://www.w3.org/2000/svg" xmlns:xlink="http://www.w3.org/1999/xlink" xml:space="preserve" xmlns:serif="http://www.serif.com/" style="fill-rule:evenodd;clip-rule:evenodd;stroke-linejoin:round;stroke-miterlimit:2;">
    <g transform="matrix(1,0,0,1,-5.68434e-14,-584.964)">
        <g transform="matrix(1.14194,0,0,1.14194,-9.09495e-13,-145.343)">
            <g id="logo-light.afdesign" transform="matrix(0.187728,0,0,0.187728,384.467,1024)">
                <g transform="matrix(1,0,0,1,-2048,-2048)">
                    <clipPath id="_clip1">
                        <rect x="0" y="0" width="4096" height="4096"/>
                    </clipPath>
                    <g clip-path="url(#_clip1)">
                        <g>
                            <g transform="matrix(1.15607,0,0,1.13049,-558.512,-534.505)">
                                <path d="M2254.64,4096L3140.4,1232.65L4026.16,4096L2254.64,4096ZM2254.64,4096L483.114,4096L1368.88,1232.65L2254.64,4096Z" style="fill:rgb(153,153,153);"/>
                            </g>
                            <g transform="matrix(3.40733,0,0,6.84681,-1314.14,-2279.1)">
                                <path d="M986.735,332.87L1587.79,931.104L385.679,931.104L986.735,332.87Z" style="fill:rgb(230,230,230);"/>
                            </g>
                            <g transform="matrix(6.76364,0,0,5.82883,-1659.68,-817.616)">
                                <path d="M372.384,842.985L308.883,842.985L548.177,287.642L787.471,842.985L723.97,842.985L548.177,709.12L372.384,842.985ZM459.246,641.4L422.92,725.704L496.437,669.721L459.246,641.4ZM611.543,582.069L548.177,435.013L484.811,582.069L548.177,630.322L611.543,582.069ZM673.434,725.704L637.108,641.4L599.917,669.721L673.434,725.704Z" style="fill:rgb(253,148,0);"/>
                            </g>
                        </g>
                    </g>
                </g>
            </g>
            <g transform="matrix(1.03999,0,0,1.03999,-403.237,309.308)">
                <g transform="matrix(0.788378,0,0,0.788378,-122.964,56.9801)">
                    <g transform="matrix(288,0,0,288,1671.67,1235.73)">
                        <path d="M0.131,0.01C0.108,0.01 0.087,0.009 0.069,0.006C0.05,0.004 0.04,0.003 0.04,0.003L0.04,-0.084C0.04,-0.084 0.071,-0.082 0.084,-0.081C0.096,-0.08 0.108,-0.079 0.119,-0.079C0.17,-0.079 0.211,-0.092 0.242,-0.117C0.272,-0.142 0.287,-0.186 0.287,-0.248L0.287,-0.74L0.385,-0.74L0.385,-0.248C0.385,-0.169 0.364,-0.107 0.321,-0.06C0.278,-0.013 0.214,0.01 0.131,0.01Z" style="fill:rgb(243,243,243);fill-rule:nonzero;"/>
                    </g>
                    <g transform="matrix(288,0,0,288,1819.99,1235.73)">
                        <path d="M0.08,-0L0.08,-0.74L0.55,-0.74L0.55,-0.654L0.178,-0.654L0.178,-0.42L0.504,-0.42L0.504,-0.334L0.178,-0.334L0.178,-0.086L0.555,-0.086L0.555,-0L0.08,-0Z" style="fill:rgb(243,243,243);fill-rule:nonzero;"/>
                    </g>
                    <g transform="matrix(288,0,0,288,2012.95,1235.73)">
                        <path d="M0.08,-0L0.08,-0.74L0.342,-0.74C0.395,-0.74 0.438,-0.73 0.473,-0.709C0.508,-0.688 0.534,-0.662 0.551,-0.629C0.568,-0.596 0.577,-0.562 0.577,-0.526C0.577,-0.496 0.571,-0.467 0.559,-0.439C0.547,-0.411 0.529,-0.387 0.505,-0.366C0.482,-0.344 0.452,-0.329 0.416,-0.32L0.603,-0L0.492,-0L0.313,-0.311L0.178,-0.311L0.178,-0L0.08,-0ZM0.341,-0.654L0.178,-0.654L0.178,-0.395L0.341,-0.395C0.372,-0.395 0.397,-0.401 0.417,-0.414C0.437,-0.427 0.452,-0.443 0.462,-0.463C0.472,-0.482 0.477,-0.503 0.477,-0.524C0.477,-0.546 0.472,-0.567 0.462,-0.587C0.452,-0.606 0.437,-0.622 0.417,-0.635C0.397,-0.648 0.372,-0.654 0.341,-0.654Z" style="fill:rgb(243,243,243);fill-rule:nonzero;"/>
                    </g>
                    <g transform="matrix(288,0,0,288,2219.73,1235.73)">
                        <path d="M0.08,-0L0.08,-0.74L0.55,-0.74L0.55,-0.654L0.178,-0.654L0.178,-0.42L0.504,-0.42L0.504,-0.334L0.178,-0.334L0.178,-0.086L0.555,-0.086L0.555,-0L0.08,-0Z" style="fill:rgb(243,243,243);fill-rule:nonzero;"/>
                    </g>
                    <g transform="matrix(288,0,0,288,2412.69,1235.73)">
                        <path d="M0.08,-0L0.08,-0.74L0.209,-0.74L0.427,-0.3L0.644,-0.74L0.773,-0.74L0.773,-0L0.677,-0L0.677,-0.596L0.473,-0.19L0.38,-0.19L0.176,-0.598L0.176,-0L0.08,-0Z" style="fill:rgb(243,243,243);fill-rule:nonzero;"/>
                    </g>
                    <g transform="matrix(288,0,0,288,2672.75,1235.73)">
                        <path d="M0.284,-0L0.284,-0.263L0.025,-0.74L0.132,-0.74L0.333,-0.363L0.533,-0.74L0.64,-0.74L0.381,-0.263L0.381,-0L0.284,-0Z" style="fill:rgb(243,243,243);fill-rule:nonzero;"/>
                    </g>
                    <g transform="matrix(288,0,0,288,2878.67,1235.73)">
                        <path d="M0.06,-0.535L0.07,-0.74L0.159,-0.74L0.122,-0.535L0.06,-0.535Z" style="fill:rgb(243,243,243);fill-rule:nonzero;"/>
                    </g>
                    <g transform="matrix(288,0,0,288,2944.63,1235.73)">
                        <path d="M0.328,0.01C0.285,0.01 0.249,0.004 0.219,-0.007C0.188,-0.018 0.163,-0.032 0.143,-0.05C0.123,-0.067 0.107,-0.086 0.095,-0.105C0.083,-0.124 0.074,-0.143 0.068,-0.161C0.062,-0.178 0.058,-0.193 0.057,-0.203C0.055,-0.215 0.054,-0.22 0.054,-0.22L0.154,-0.22C0.154,-0.22 0.155,-0.215 0.157,-0.206C0.159,-0.197 0.163,-0.185 0.17,-0.171C0.176,-0.157 0.185,-0.143 0.198,-0.129C0.211,-0.114 0.228,-0.102 0.249,-0.093C0.27,-0.084 0.297,-0.079 0.33,-0.079C0.379,-0.079 0.418,-0.091 0.447,-0.115C0.476,-0.138 0.49,-0.169 0.49,-0.207C0.49,-0.24 0.479,-0.265 0.458,-0.283C0.436,-0.301 0.405,-0.315 0.365,-0.325L0.267,-0.349C0.232,-0.358 0.2,-0.37 0.171,-0.386C0.141,-0.401 0.117,-0.422 0.1,-0.448C0.082,-0.473 0.073,-0.505 0.073,-0.544C0.073,-0.587 0.084,-0.624 0.105,-0.655C0.126,-0.686 0.155,-0.709 0.192,-0.726C0.229,-0.742 0.27,-0.75 0.317,-0.75C0.362,-0.75 0.4,-0.743 0.43,-0.729C0.46,-0.715 0.484,-0.698 0.502,-0.678C0.52,-0.657 0.533,-0.637 0.542,-0.617C0.551,-0.596 0.556,-0.579 0.559,-0.565C0.562,-0.551 0.563,-0.544 0.563,-0.544L0.467,-0.544C0.467,-0.544 0.466,-0.55 0.463,-0.562C0.46,-0.574 0.454,-0.588 0.444,-0.604C0.434,-0.619 0.419,-0.633 0.398,-0.645C0.377,-0.657 0.349,-0.663 0.314,-0.663C0.266,-0.663 0.23,-0.652 0.205,-0.629C0.181,-0.606 0.169,-0.58 0.169,-0.551C0.169,-0.524 0.179,-0.503 0.198,-0.487C0.217,-0.47 0.244,-0.458 0.278,-0.449L0.384,-0.423C0.422,-0.414 0.456,-0.4 0.487,-0.383C0.518,-0.365 0.542,-0.342 0.56,-0.315C0.578,-0.287 0.587,-0.253 0.587,-0.213C0.587,-0.173 0.577,-0.136 0.558,-0.102C0.538,-0.068 0.509,-0.041 0.47,-0.021C0.432,-0 0.385,0.01 0.328,0.01Z" style="fill:rgb(243,243,243);fill-rule:nonzero;"/>
                    </g>
                    <g transform="matrix(288,0,0,288,3222.55,1235.73)">
                        <path d="M0.08,-0L0.08,-0.74L0.344,-0.74C0.401,-0.74 0.448,-0.728 0.486,-0.705C0.523,-0.682 0.552,-0.652 0.571,-0.615C0.59,-0.578 0.599,-0.539 0.599,-0.499C0.599,-0.458 0.59,-0.42 0.571,-0.383C0.552,-0.345 0.523,-0.315 0.486,-0.292C0.448,-0.268 0.401,-0.256 0.344,-0.256L0.178,-0.256L0.178,-0L0.08,-0ZM0.344,-0.654L0.178,-0.654L0.178,-0.342L0.344,-0.342C0.379,-0.342 0.409,-0.35 0.432,-0.365C0.455,-0.38 0.473,-0.4 0.485,-0.424C0.496,-0.447 0.502,-0.472 0.502,-0.498C0.502,-0.524 0.496,-0.549 0.485,-0.573C0.473,-0.597 0.455,-0.617 0.432,-0.631C0.409,-0.647 0.379,-0.654 0.344,-0.654Z" style="fill:rgb(243,243,243);fill-rule:nonzero;"/>
                    </g>
                    <g transform="matrix(288,0,0,288,3422.42,1235.73)">
                        <path d="M0.413,0.01C0.354,0.01 0.303,-0.001 0.258,-0.023C0.213,-0.044 0.176,-0.073 0.146,-0.11C0.116,-0.146 0.093,-0.187 0.078,-0.232C0.063,-0.277 0.055,-0.324 0.055,-0.371C0.055,-0.418 0.063,-0.465 0.078,-0.509C0.093,-0.555 0.116,-0.595 0.146,-0.631C0.176,-0.667 0.213,-0.696 0.258,-0.718C0.303,-0.739 0.354,-0.75 0.413,-0.75C0.472,-0.75 0.523,-0.739 0.568,-0.718C0.613,-0.696 0.65,-0.667 0.68,-0.631C0.71,-0.595 0.733,-0.555 0.748,-0.509C0.763,-0.465 0.771,-0.418 0.771,-0.371C0.771,-0.324 0.763,-0.277 0.748,-0.232C0.733,-0.187 0.71,-0.146 0.68,-0.11C0.65,-0.073 0.613,-0.044 0.568,-0.023C0.523,-0.001 0.472,0.01 0.413,0.01ZM0.413,-0.081C0.455,-0.081 0.492,-0.089 0.524,-0.105C0.556,-0.121 0.583,-0.143 0.605,-0.17C0.626,-0.197 0.643,-0.228 0.654,-0.263C0.665,-0.298 0.671,-0.334 0.671,-0.371C0.671,-0.408 0.665,-0.443 0.654,-0.477C0.643,-0.512 0.626,-0.543 0.605,-0.57C0.583,-0.597 0.556,-0.619 0.524,-0.635C0.492,-0.651 0.455,-0.659 0.413,-0.659C0.371,-0.659 0.334,-0.651 0.302,-0.635C0.27,-0.619 0.243,-0.597 0.222,-0.57C0.2,-0.543 0.183,-0.512 0.172,-0.477C0.161,-0.443 0.155,-0.408 0.155,-0.371C0.155,-0.334 0.161,-0.298 0.172,-0.263C0.183,-0.228 0.2,-0.197 0.222,-0.17C0.243,-0.143 0.27,-0.121 0.302,-0.105C0.334,-0.089 0.371,-0.081 0.413,-0.081Z" style="fill:rgb(243,243,243);fill-rule:nonzero;"/>
                    </g>
                    <g transform="matrix(288,0,0,288,3674.71,1235.73)">
                        <path d="M0.08,-0L0.08,-0.74L0.342,-0.74C0.395,-0.74 0.438,-0.73 0.473,-0.709C0.508,-0.688 0.534,-0.662 0.551,-0.629C0.568,-0.596 0.577,-0.562 0.577,-0.526C0.577,-0.496 0.571,-0.467 0.559,-0.439C0.547,-0.411 0.529,-0.387 0.505,-0.366C0.482,-0.344 0.452,-0.329 0.416,-0.32L0.603,-0L0.492,-0L0.313,-0.311L0.178,-0.311L0.178,-0L0.08,-0ZM0.341,-0.654L0.178,-0.654L0.178,-0.395L0.341,-0.395C0.372,-0.395 0.397,-0.401 0.417,-0.414C0.437,-0.427 0.452,-0.443 0.462,-0.463C0.472,-0.482 0.477,-0.503 0.477,-0.524C0.477,-0.546 0.472,-0.567 0.462,-0.587C0.452,-0.606 0.437,-0.622 0.417,-0.635C0.397,-0.648 0.372,-0.654 0.341,-0.654Z" style="fill:rgb(243,243,243);fill-rule:nonzero;"/>
                    </g>
                    <g transform="matrix(288,0,0,288,3872.85,1235.73)">
                        <path d="M0.276,-0L0.276,-0.654L0.045,-0.654L0.045,-0.74L0.605,-0.74L0.605,-0.654L0.374,-0.654L0.374,-0L0.276,-0Z" style="fill:rgb(243,243,243);fill-rule:nonzero;"/>
                    </g>
                    <g transform="matrix(288,0,0,288,4074.45,1235.73)">
                        <path d="M0.08,-0L0.08,-0.74L0.568,-0.74L0.568,-0.654L0.178,-0.654L0.178,-0.41L0.522,-0.41L0.522,-0.324L0.178,-0.324L0.178,-0L0.08,-0Z" style="fill:rgb(243,243,243);fill-rule:nonzero;"/>
                    </g>
                    <g transform="matrix(288,0,0,288,4265.39,1235.73)">
                        <path d="M0.413,0.01C0.354,0.01 0.303,-0.001 0.258,-0.023C0.213,-0.044 0.176,-0.073 0.146,-0.11C0.116,-0.146 0.093,-0.187 0.078,-0.232C0.063,-0.277 0.055,-0.324 0.055,-0.371C0.055,-0.418 0.063,-0.465 0.078,-0.509C0.093,-0.555 0.116,-0.595 0.146,-0.631C0.176,-0.667 0.213,-0.696 0.258,-0.718C0.303,-0.739 0.354,-0.75 0.413,-0.75C0.472,-0.75 0.523,-0.739 0.568,-0.718C0.613,-0.696 0.65,-0.667 0.68,-0.631C0.71,-0.595 0.733,-0.555 0.748,-0.509C0.763,-0.465 0.771,-0.418 0.771,-0.371C0.771,-0.324 0.763,-0.277 0.748,-0.232C0.733,-0.187 0.71,-0.146 0.68,-0.11C0.65,-0.073 0.613,-0.044 0.568,-0.023C0.523,-0.001 0.472,0.01 0.413,0.01ZM0.413,-0.081C0.455,-0.081 0.492,-0.089 0.524,-0.105C0.556,-0.121 0.583,-0.143 0.605,-0.17C0.626,-0.197 0.643,-0.228 0.654,-0.263C0.665,-0.298 0.671,-0.334 0.671,-0.371C0.671,-0.408 0.665,-0.443 0.654,-0.477C0.643,-0.512 0.626,-0.543 0.605,-0.57C0.583,-0.597 0.556,-0.619 0.524,-0.635C0.492,-0.651 0.455,-0.659 0.413,-0.659C0.371,-0.659 0.334,-0.651 0.302,-0.635C0.27,-0.619 0.243,-0.597 0.222,-0.57C0.2,-0.543 0.183,-0.512 0.172,-0.477C0.161,-0.443 0.155,-0.408 0.155,-0.371C0.155,-0.334 0.161,-0.298 0.172,-0.263C0.183,-0.228 0.2,-0.197 0.222,-0.17C0.243,-0.143 0.27,-0.121 0.302,-0.105C0.334,-0.089 0.371,-0.081 0.413,-0.081Z" style="fill:rgb(243,243,243);fill-rule:nonzero;"/>
                    </g>
                    <g transform="matrix(288,0,0,288,4517.68,1235.73)">
                        <path d="M0.08,-0L0.08,-0.74L0.178,-0.74L0.178,-0.086L0.559,-0.086L0.559,-0L0.08,-0Z" style="fill:rgb(243,243,243);fill-rule:nonzero;"/>
                    </g>
                    <g transform="matrix(288,0,0,288,4711.79,1235.73)">
                        <rect x="0.08" y="-0.74" width="0.098" height="0.74" style="fill:rgb(243,243,243);fill-rule:nonzero;"/>
                    </g>
                    <g transform="matrix(288,0,0,288,4800.5,1235.73)">
                        <path d="M0.413,0.01C0.354,0.01 0.303,-0.001 0.258,-0.023C0.213,-0.044 0.176,-0.073 0.146,-0.11C0.116,-0.146 0.093,-0.187 0.078,-0.232C0.063,-0.277 0.055,-0.324 0.055,-0.371C0.055,-0.418 0.063,-0.465 0.078,-0.509C0.093,-0.555 0.116,-0.595 0.146,-0.631C0.176,-0.667 0.213,-0.696 0.258,-0.718C0.303,-0.739 0.354,-0.75 0.413,-0.75C0.472,-0.75 0.523,-0.739 0.568,-0.718C0.613,-0.696 0.65,-0.667 0.68,-0.631C0.71,-0.595 0.733,-0.555 0.748,-0.509C0.763,-0.465 0.771,-0.418 0.771,-0.371C0.771,-0.324 0.763,-0.277 0.748,-0.232C0.733,-0.187 0.71,-0.146 0.68,-0.11C0.65,-0.073 0.613,-0.044 0.568,-0.023C0.523,-0.001 0.472,0.01 0.413,0.01ZM0.413,-0.081C0.455,-0.081 0.492,-0.089 0.524,-0.105C0.556,-0.121 0.583,-0.143 0.605,-0.17C0.626,-0.197 0.643,-0.228 0.654,-0.263C0.665,-0.298 0.671,-0.334 0.671,-0.371C0.671,-0.408 0.665,-0.443 0.654,-0.477C0.643,-0.512 0.626,-0.543 0.605,-0.57C0.583,-0.597 0.556,-0.619 0.524,-0.635C0.492,-0.651 0.455,-0.659 0.413,-0.659C0.371,-0.659 0.334,-0.651 0.302,-0.635C0.27,-0.619 0.243,-0.597 0.222,-0.57C0.2,-0.543 0.183,-0.512 0.172,-0.477C0.161,-0.443 0.155,-0.408 0.155,-0.371C0.155,-0.334 0.161,-0.298 0.172,-0.263C0.183,-0.228 0.2,-0.197 0.222,-0.17C0.243,-0.143 0.27,-0.121 0.302,-0.105C0.334,-0.089 0.371,-0.081 0.413,-0.081Z" style="fill:rgb(243,243,243);fill-rule:nonzero;"/>
                    </g>
                </g>
                <g transform="matrix(1.97222,0,0,1.97222,-2428.03,-634.756)">
                    <g transform="matrix(288,0,0,288,1828.65,716.484)">
                        <path d="M0.406,0.01C0.346,0.01 0.294,-0.001 0.249,-0.023C0.203,-0.044 0.166,-0.073 0.136,-0.11C0.105,-0.146 0.083,-0.187 0.068,-0.232C0.053,-0.277 0.045,-0.323 0.045,-0.37C0.045,-0.417 0.053,-0.464 0.068,-0.509C0.083,-0.554 0.105,-0.595 0.136,-0.631C0.166,-0.668 0.203,-0.697 0.249,-0.718C0.294,-0.739 0.346,-0.75 0.406,-0.75C0.456,-0.75 0.499,-0.744 0.535,-0.731C0.571,-0.718 0.601,-0.702 0.625,-0.682C0.649,-0.662 0.668,-0.641 0.683,-0.618C0.697,-0.595 0.708,-0.574 0.715,-0.554C0.722,-0.534 0.727,-0.518 0.73,-0.505C0.732,-0.492 0.733,-0.486 0.733,-0.486L0.598,-0.486C0.598,-0.486 0.597,-0.491 0.595,-0.5C0.592,-0.509 0.588,-0.521 0.581,-0.536C0.574,-0.55 0.563,-0.564 0.549,-0.578C0.535,-0.592 0.517,-0.604 0.494,-0.613C0.47,-0.622 0.442,-0.627 0.408,-0.627C0.371,-0.627 0.338,-0.62 0.31,-0.606C0.282,-0.591 0.259,-0.572 0.24,-0.547C0.221,-0.522 0.207,-0.495 0.199,-0.464C0.19,-0.433 0.185,-0.402 0.185,-0.37C0.185,-0.338 0.19,-0.307 0.199,-0.277C0.207,-0.246 0.221,-0.219 0.24,-0.194C0.259,-0.169 0.282,-0.15 0.31,-0.135C0.338,-0.12 0.371,-0.113 0.408,-0.113C0.442,-0.113 0.47,-0.118 0.494,-0.128C0.517,-0.137 0.535,-0.149 0.549,-0.163C0.563,-0.177 0.574,-0.191 0.581,-0.205C0.588,-0.219 0.592,-0.231 0.595,-0.241C0.597,-0.25 0.598,-0.255 0.598,-0.255L0.733,-0.255C0.733,-0.255 0.732,-0.249 0.73,-0.236C0.727,-0.223 0.722,-0.207 0.715,-0.187C0.708,-0.166 0.697,-0.145 0.683,-0.123C0.668,-0.1 0.649,-0.079 0.625,-0.059C0.601,-0.038 0.571,-0.022 0.535,-0.009C0.499,0.004 0.456,0.01 0.406,0.01Z" style="fill:rgb(241,241,241);fill-rule:nonzero;"/>
                    </g>
                    <g transform="matrix(288,0,0,288,2055.59,716.484)">
                        <path d="M0.142,-0.612C0.119,-0.612 0.1,-0.62 0.085,-0.635C0.07,-0.65 0.062,-0.669 0.062,-0.69C0.062,-0.711 0.07,-0.73 0.085,-0.745C0.1,-0.76 0.119,-0.768 0.142,-0.768C0.165,-0.768 0.185,-0.76 0.2,-0.745C0.215,-0.73 0.223,-0.711 0.223,-0.69C0.223,-0.669 0.215,-0.65 0.2,-0.635C0.185,-0.62 0.165,-0.612 0.142,-0.612ZM0.076,-0L0.076,-0.53L0.209,-0.53L0.209,-0L0.076,-0Z" style="fill:rgb(241,241,241);fill-rule:nonzero;"/>
                    </g>
                    <g transform="matrix(288,0,0,288,2140.55,716.484)">
                        <path d="M0.062,-0L0.062,-0.53L0.195,-0.53L0.195,-0.456L0.2,-0.456C0.207,-0.468 0.216,-0.481 0.228,-0.494C0.24,-0.506 0.256,-0.518 0.275,-0.527C0.294,-0.536 0.317,-0.54 0.345,-0.54C0.384,-0.54 0.417,-0.531 0.442,-0.512C0.467,-0.493 0.486,-0.469 0.498,-0.44L0.5,-0.44C0.513,-0.465 0.533,-0.488 0.56,-0.509C0.586,-0.53 0.621,-0.54 0.665,-0.54C0.702,-0.54 0.734,-0.532 0.758,-0.515C0.784,-0.498 0.802,-0.475 0.815,-0.446C0.827,-0.417 0.833,-0.386 0.833,-0.353L0.833,-0L0.7,-0L0.7,-0.325C0.7,-0.356 0.693,-0.381 0.678,-0.401C0.663,-0.42 0.64,-0.43 0.611,-0.43C0.588,-0.43 0.569,-0.424 0.555,-0.411C0.54,-0.399 0.53,-0.384 0.524,-0.365C0.517,-0.346 0.514,-0.327 0.514,-0.308L0.514,-0L0.381,-0L0.381,-0.325C0.381,-0.356 0.374,-0.381 0.359,-0.401C0.344,-0.42 0.322,-0.43 0.292,-0.43C0.269,-0.43 0.25,-0.424 0.235,-0.411C0.221,-0.399 0.211,-0.384 0.204,-0.365C0.198,-0.345 0.195,-0.327 0.195,-0.308L0.195,-0L0.062,-0Z" style="fill:rgb(241,241,241);fill-rule:nonzero;"/>
                    </g>
                    <g transform="matrix(288,0,0,288,2400.04,716.484)">
                        <path d="M0.289,-0.54C0.323,-0.54 0.351,-0.535 0.373,-0.524C0.395,-0.513 0.412,-0.5 0.425,-0.488C0.438,-0.474 0.446,-0.464 0.451,-0.456L0.457,-0.456L0.457,-0.53L0.59,-0.53L0.59,-0L0.457,-0L0.457,-0.074L0.451,-0.074C0.446,-0.066 0.438,-0.055 0.425,-0.042C0.412,-0.029 0.395,-0.017 0.373,-0.006C0.351,0.005 0.323,0.01 0.289,0.01C0.25,0.01 0.215,0.002 0.186,-0.014C0.157,-0.029 0.132,-0.05 0.113,-0.077C0.093,-0.103 0.078,-0.132 0.069,-0.165C0.059,-0.198 0.054,-0.231 0.054,-0.265C0.054,-0.299 0.059,-0.332 0.069,-0.365C0.078,-0.398 0.093,-0.427 0.113,-0.454C0.132,-0.48 0.157,-0.501 0.186,-0.517C0.215,-0.532 0.25,-0.54 0.289,-0.54ZM0.324,-0.431C0.294,-0.431 0.269,-0.423 0.249,-0.406C0.228,-0.39 0.213,-0.369 0.203,-0.344C0.193,-0.319 0.188,-0.292 0.188,-0.265C0.188,-0.238 0.193,-0.211 0.203,-0.186C0.213,-0.161 0.228,-0.14 0.249,-0.124C0.269,-0.107 0.294,-0.099 0.324,-0.099C0.354,-0.099 0.379,-0.107 0.399,-0.124C0.419,-0.14 0.434,-0.161 0.444,-0.186C0.454,-0.211 0.459,-0.238 0.459,-0.265C0.459,-0.292 0.454,-0.319 0.444,-0.344C0.434,-0.369 0.419,-0.39 0.399,-0.406C0.379,-0.423 0.354,-0.431 0.324,-0.431Z" style="fill:rgb(241,241,241);fill-rule:nonzero;"/>
                    </g>
                    <g transform="matrix(288,0,0,288,2590.7,716.484)">
                        <path d="M0.035,-0L0.29,-0.74L0.467,-0.74L0.723,-0L0.581,-0L0.528,-0.156L0.23,-0.156L0.177,-0L0.035,-0ZM0.269,-0.274L0.489,-0.274L0.379,-0.601L0.269,-0.274Z" style="fill:rgb(241,241,241);fill-rule:nonzero;"/>
                    </g>
                    <g transform="matrix(288,0,0,288,2811.88,716.484)">
                        <path d="M0.072,-0L0.073,-0.76L0.205,-0.76L0.205,-0L0.072,-0Z" style="fill:rgb(241,241,241);fill-rule:nonzero;"/>
                    </g>
                    <g transform="matrix(288,0,0,288,2894.54,716.484)">
                        <path d="M0.124,-0L0.124,-0.423L0.039,-0.423L0.039,-0.53L0.124,-0.53L0.124,-0.579C0.124,-0.599 0.127,-0.62 0.132,-0.643C0.137,-0.665 0.147,-0.686 0.16,-0.705C0.172,-0.724 0.191,-0.74 0.215,-0.752C0.238,-0.764 0.268,-0.77 0.304,-0.77C0.324,-0.77 0.341,-0.769 0.354,-0.765C0.367,-0.762 0.373,-0.761 0.373,-0.761L0.373,-0.664C0.373,-0.664 0.369,-0.665 0.36,-0.667C0.351,-0.668 0.342,-0.669 0.332,-0.669C0.303,-0.669 0.284,-0.661 0.273,-0.644C0.262,-0.627 0.257,-0.606 0.257,-0.579L0.257,-0.53L0.37,-0.53L0.37,-0.423L0.257,-0.423L0.257,-0L0.124,-0Z" style="fill:rgb(241,241,241);fill-rule:nonzero;"/>
                    </g>
                    <g transform="matrix(288,0,0,288,3006.57,716.484)">
                        <path d="M0.289,-0.54C0.323,-0.54 0.351,-0.535 0.373,-0.524C0.395,-0.513 0.412,-0.5 0.425,-0.488C0.438,-0.474 0.446,-0.464 0.451,-0.456L0.457,-0.456L0.457,-0.53L0.59,-0.53L0.59,-0L0.457,-0L0.457,-0.074L0.451,-0.074C0.446,-0.066 0.438,-0.055 0.425,-0.042C0.412,-0.029 0.395,-0.017 0.373,-0.006C0.351,0.005 0.323,0.01 0.289,0.01C0.25,0.01 0.215,0.002 0.186,-0.014C0.157,-0.029 0.132,-0.05 0.113,-0.077C0.093,-0.103 0.078,-0.132 0.069,-0.165C0.059,-0.198 0.054,-0.231 0.054,-0.265C0.054,-0.299 0.059,-0.332 0.069,-0.365C0.078,-0.398 0.093,-0.427 0.113,-0.454C0.132,-0.48 0.157,-0.501 0.186,-0.517C0.215,-0.532 0.25,-0.54 0.289,-0.54ZM0.324,-0.431C0.294,-0.431 0.269,-0.423 0.249,-0.406C0.228,-0.39 0.213,-0.369 0.203,-0.344C0.193,-0.319 0.188,-0.292 0.188,-0.265C0.188,-0.238 0.193,-0.211 0.203,-0.186C0.213,-0.161 0.228,-0.14 0.249,-0.124C0.269,-0.107 0.294,-0.099 0.324,-0.099C0.354,-0.099 0.379,-0.107 0.399,-0.124C0.419,-0.14 0.434,-0.161 0.444,-0.186C0.454,-0.211 0.459,-0.238 0.459,-0.265C0.459,-0.292 0.454,-0.319 0.444,-0.344C0.434,-0.369 0.419,-0.39 0.399,-0.406C0.379,-0.423 0.354,-0.431 0.324,-0.431Z" style="fill:rgb(241,241,241);fill-rule:nonzero;"/>
                    </g>
                </g>
            </g>
        </g>
    </g>
</svg>
