<?xml version="1.0" encoding="UTF-8" standalone="no"?>
<!DOCTYPE svg PUBLIC "-//W3C//DTD SVG 1.1//EN" "http://www.w3.org/Graphics/SVG/1.1/DTD/svg11.dtd">
<svg width="100%" height="100%" viewBox="0 0 4096 879" version="1.1" xmlns="http://www.w3.org/2000/svg" xmlns:xlink="http://www.w3.org/1999/xlink" xml:space="preserve" xmlns:serif="http://www.serif.com/" style="fill-rule:evenodd;clip-rule:evenodd;stroke-linejoin:round;stroke-miterlimit:2;">
    <g transform="matrix(1.14194,0,0,1.14194,-9.66338e-13,-730.307)">
        <g>
            <g transform="matrix(0.187728,0,0,0.187728,5.6e-05,639.533)">
                <g id="logo-light.afdesign">
                    <g>
                        <g>
                            <g>
                                <g transform="matrix(1.15607,0,0,1.13049,-558.512,-534.505)">
                                    <path d="M2254.64,4096L3140.4,1232.65L4026.16,4096L2254.64,4096ZM2254.64,4096L483.114,4096L1368.88,1232.65L2254.64,4096Z" style="fill:rgb(153,153,153);"/>
                                </g>
                                <g transform="matrix(3.40733,0,0,6.84681,-1314.14,-2279.1)">
                                    <path d="M986.735,332.87L1587.79,931.104L385.679,931.104L986.735,332.87Z" style="fill:rgb(230,230,230);"/>
                                </g>
                                <g transform="matrix(6.76364,0,0,5.82883,-1659.68,-817.616)">
                                    <path d="M372.384,842.985L308.883,842.985L548.177,287.642L787.471,842.985L723.97,842.985L548.177,709.12L372.384,842.985ZM459.246,641.4L422.92,725.704L496.437,669.721L459.246,641.4ZM611.543,582.069L548.177,435.013L484.811,582.069L548.177,630.322L611.543,582.069ZM673.434,725.704L637.108,641.4L599.917,669.721L673.434,725.704Z" style="fill:rgb(253,148,0);"/>
                                </g>
                            </g>
                        </g>
                    </g>
                </g>
            </g>
            <g transform="matrix(2.05109,0,0,2.05109,-2928.36,-220.698)">
                <g>
                    <g transform="matrix(288,0,0,288,1828.65,716.484)">
                        <path d="M0.406,0.01C0.346,0.01 0.294,-0.001 0.249,-0.023C0.203,-0.044 0.166,-0.073 0.136,-0.11C0.105,-0.146 0.083,-0.187 0.068,-0.232C0.053,-0.277 0.045,-0.323 0.045,-0.37C0.045,-0.417 0.053,-0.464 0.068,-0.509C0.083,-0.554 0.105,-0.595 0.136,-0.631C0.166,-0.668 0.203,-0.697 0.249,-0.718C0.294,-0.739 0.346,-0.75 0.406,-0.75C0.456,-0.75 0.499,-0.744 0.535,-0.731C0.571,-0.718 0.601,-0.702 0.625,-0.682C0.649,-0.662 0.668,-0.641 0.683,-0.618C0.697,-0.595 0.708,-0.574 0.715,-0.554C0.722,-0.534 0.727,-0.518 0.73,-0.505C0.732,-0.492 0.733,-0.486 0.733,-0.486L0.598,-0.486C0.598,-0.486 0.597,-0.491 0.595,-0.5C0.592,-0.509 0.588,-0.521 0.581,-0.536C0.574,-0.55 0.563,-0.564 0.549,-0.578C0.535,-0.592 0.517,-0.604 0.494,-0.613C0.47,-0.622 0.442,-0.627 0.408,-0.627C0.371,-0.627 0.338,-0.62 0.31,-0.606C0.282,-0.591 0.259,-0.572 0.24,-0.547C0.221,-0.522 0.207,-0.495 0.199,-0.464C0.19,-0.433 0.185,-0.402 0.185,-0.37C0.185,-0.338 0.19,-0.307 0.199,-0.277C0.207,-0.246 0.221,-0.219 0.24,-0.194C0.259,-0.169 0.282,-0.15 0.31,-0.135C0.338,-0.12 0.371,-0.113 0.408,-0.113C0.442,-0.113 0.47,-0.118 0.494,-0.128C0.517,-0.137 0.535,-0.149 0.549,-0.163C0.563,-0.177 0.574,-0.191 0.581,-0.205C0.588,-0.219 0.592,-0.231 0.595,-0.241C0.597,-0.25 0.598,-0.255 0.598,-0.255L0.733,-0.255C0.733,-0.255 0.732,-0.249 0.73,-0.236C0.727,-0.223 0.722,-0.207 0.715,-0.187C0.708,-0.166 0.697,-0.145 0.683,-0.123C0.668,-0.1 0.649,-0.079 0.625,-0.059C0.601,-0.038 0.571,-0.022 0.535,-0.009C0.499,0.004 0.456,0.01 0.406,0.01Z" style="fill:rgb(241,241,241);fill-rule:nonzero;"/>
                    </g>
                    <g transform="matrix(288,0,0,288,2055.59,716.484)">
                        <path d="M0.142,-0.612C0.119,-0.612 0.1,-0.62 0.085,-0.635C0.07,-0.65 0.062,-0.669 0.062,-0.69C0.062,-0.711 0.07,-0.73 0.085,-0.745C0.1,-0.76 0.119,-0.768 0.142,-0.768C0.165,-0.768 0.185,-0.76 0.2,-0.745C0.215,-0.73 0.223,-0.711 0.223,-0.69C0.223,-0.669 0.215,-0.65 0.2,-0.635C0.185,-0.62 0.165,-0.612 0.142,-0.612ZM0.076,-0L0.076,-0.53L0.209,-0.53L0.209,-0L0.076,-0Z" style="fill:rgb(241,241,241);fill-rule:nonzero;"/>
                    </g>
                    <g transform="matrix(288,0,0,288,2140.55,716.484)">
                        <path d="M0.062,-0L0.062,-0.53L0.195,-0.53L0.195,-0.456L0.2,-0.456C0.207,-0.468 0.216,-0.481 0.228,-0.494C0.24,-0.506 0.256,-0.518 0.275,-0.527C0.294,-0.536 0.317,-0.54 0.345,-0.54C0.384,-0.54 0.417,-0.531 0.442,-0.512C0.467,-0.493 0.486,-0.469 0.498,-0.44L0.5,-0.44C0.513,-0.465 0.533,-0.488 0.56,-0.509C0.586,-0.53 0.621,-0.54 0.665,-0.54C0.702,-0.54 0.734,-0.532 0.758,-0.515C0.784,-0.498 0.802,-0.475 0.815,-0.446C0.827,-0.417 0.833,-0.386 0.833,-0.353L0.833,-0L0.7,-0L0.7,-0.325C0.7,-0.356 0.693,-0.381 0.678,-0.401C0.663,-0.42 0.64,-0.43 0.611,-0.43C0.588,-0.43 0.569,-0.424 0.555,-0.411C0.54,-0.399 0.53,-0.384 0.524,-0.365C0.517,-0.346 0.514,-0.327 0.514,-0.308L0.514,-0L0.381,-0L0.381,-0.325C0.381,-0.356 0.374,-0.381 0.359,-0.401C0.344,-0.42 0.322,-0.43 0.292,-0.43C0.269,-0.43 0.25,-0.424 0.235,-0.411C0.221,-0.399 0.211,-0.384 0.204,-0.365C0.198,-0.345 0.195,-0.327 0.195,-0.308L0.195,-0L0.062,-0Z" style="fill:rgb(241,241,241);fill-rule:nonzero;"/>
                    </g>
                    <g transform="matrix(288,0,0,288,2400.04,716.484)">
                        <path d="M0.289,-0.54C0.323,-0.54 0.351,-0.535 0.373,-0.524C0.395,-0.513 0.412,-0.5 0.425,-0.488C0.438,-0.474 0.446,-0.464 0.451,-0.456L0.457,-0.456L0.457,-0.53L0.59,-0.53L0.59,-0L0.457,-0L0.457,-0.074L0.451,-0.074C0.446,-0.066 0.438,-0.055 0.425,-0.042C0.412,-0.029 0.395,-0.017 0.373,-0.006C0.351,0.005 0.323,0.01 0.289,0.01C0.25,0.01 0.215,0.002 0.186,-0.014C0.157,-0.029 0.132,-0.05 0.113,-0.077C0.093,-0.103 0.078,-0.132 0.069,-0.165C0.059,-0.198 0.054,-0.231 0.054,-0.265C0.054,-0.299 0.059,-0.332 0.069,-0.365C0.078,-0.398 0.093,-0.427 0.113,-0.454C0.132,-0.48 0.157,-0.501 0.186,-0.517C0.215,-0.532 0.25,-0.54 0.289,-0.54ZM0.324,-0.431C0.294,-0.431 0.269,-0.423 0.249,-0.406C0.228,-0.39 0.213,-0.369 0.203,-0.344C0.193,-0.319 0.188,-0.292 0.188,-0.265C0.188,-0.238 0.193,-0.211 0.203,-0.186C0.213,-0.161 0.228,-0.14 0.249,-0.124C0.269,-0.107 0.294,-0.099 0.324,-0.099C0.354,-0.099 0.379,-0.107 0.399,-0.124C0.419,-0.14 0.434,-0.161 0.444,-0.186C0.454,-0.211 0.459,-0.238 0.459,-0.265C0.459,-0.292 0.454,-0.319 0.444,-0.344C0.434,-0.369 0.419,-0.39 0.399,-0.406C0.379,-0.423 0.354,-0.431 0.324,-0.431Z" style="fill:rgb(241,241,241);fill-rule:nonzero;"/>
                    </g>
                    <g transform="matrix(288,0,0,288,2590.7,716.484)">
                        <path d="M0.035,-0L0.29,-0.74L0.467,-0.74L0.723,-0L0.581,-0L0.528,-0.156L0.23,-0.156L0.177,-0L0.035,-0ZM0.269,-0.274L0.489,-0.274L0.379,-0.601L0.269,-0.274Z" style="fill:rgb(241,241,241);fill-rule:nonzero;"/>
                    </g>
                    <g transform="matrix(288,0,0,288,2811.88,716.484)">
                        <path d="M0.072,-0L0.073,-0.76L0.205,-0.76L0.205,-0L0.072,-0Z" style="fill:rgb(241,241,241);fill-rule:nonzero;"/>
                    </g>
                    <g transform="matrix(288,0,0,288,2894.54,716.484)">
                        <path d="M0.124,-0L0.124,-0.423L0.039,-0.423L0.039,-0.53L0.124,-0.53L0.124,-0.579C0.124,-0.599 0.127,-0.62 0.132,-0.643C0.137,-0.665 0.147,-0.686 0.16,-0.705C0.172,-0.724 0.191,-0.74 0.215,-0.752C0.238,-0.764 0.268,-0.77 0.304,-0.77C0.324,-0.77 0.341,-0.769 0.354,-0.765C0.367,-0.762 0.373,-0.761 0.373,-0.761L0.373,-0.664C0.373,-0.664 0.369,-0.665 0.36,-0.667C0.351,-0.668 0.342,-0.669 0.332,-0.669C0.303,-0.669 0.284,-0.661 0.273,-0.644C0.262,-0.627 0.257,-0.606 0.257,-0.579L0.257,-0.53L0.37,-0.53L0.37,-0.423L0.257,-0.423L0.257,-0L0.124,-0Z" style="fill:rgb(241,241,241);fill-rule:nonzero;"/>
                    </g>
                    <g transform="matrix(288,0,0,288,3006.57,716.484)">
                        <path d="M0.289,-0.54C0.323,-0.54 0.351,-0.535 0.373,-0.524C0.395,-0.513 0.412,-0.5 0.425,-0.488C0.438,-0.474 0.446,-0.464 0.451,-0.456L0.457,-0.456L0.457,-0.53L0.59,-0.53L0.59,-0L0.457,-0L0.457,-0.074L0.451,-0.074C0.446,-0.066 0.438,-0.055 0.425,-0.042C0.412,-0.029 0.395,-0.017 0.373,-0.006C0.351,0.005 0.323,0.01 0.289,0.01C0.25,0.01 0.215,0.002 0.186,-0.014C0.157,-0.029 0.132,-0.05 0.113,-0.077C0.093,-0.103 0.078,-0.132 0.069,-0.165C0.059,-0.198 0.054,-0.231 0.054,-0.265C0.054,-0.299 0.059,-0.332 0.069,-0.365C0.078,-0.398 0.093,-0.427 0.113,-0.454C0.132,-0.48 0.157,-0.501 0.186,-0.517C0.215,-0.532 0.25,-0.54 0.289,-0.54ZM0.324,-0.431C0.294,-0.431 0.269,-0.423 0.249,-0.406C0.228,-0.39 0.213,-0.369 0.203,-0.344C0.193,-0.319 0.188,-0.292 0.188,-0.265C0.188,-0.238 0.193,-0.211 0.203,-0.186C0.213,-0.161 0.228,-0.14 0.249,-0.124C0.269,-0.107 0.294,-0.099 0.324,-0.099C0.354,-0.099 0.379,-0.107 0.399,-0.124C0.419,-0.14 0.434,-0.161 0.444,-0.186C0.454,-0.211 0.459,-0.238 0.459,-0.265C0.459,-0.292 0.454,-0.319 0.444,-0.344C0.434,-0.369 0.419,-0.39 0.399,-0.406C0.379,-0.423 0.354,-0.431 0.324,-0.431Z" style="fill:rgb(241,241,241);fill-rule:nonzero;"/>
                    </g>
                </g>
            </g>
        </g>
    </g>
</svg>
